{"title":"StarTrek-TNG(Complete)AVIXVid-DVDRip","uid":15270736,"size":90135103280,"categoryP":"video","categoryS":"tv_shows","magnet":"?xt=urn:btih:cbc0215a625552b7334775e462d2ac7bad77e88c&amp;dn=StarTrek-TNG%28Complete%29AVIXVid-DVDRip&amp;tr=udp%3A%2F%2Ftracker.leechers-paradise.org%3A6969&amp;tr=udp%3A%2F%2Fzer0day.ch%3A1337&amp;tr=udp%3A%2F%2Fopen.demonii.com%3A1337&amp;tr=udp%3A%2F%2Ftracker.coppersurfer.tk%3A6969&amp;tr=udp%3A%2F%2Fexodus.desync.com%3A6969","seeders":0,"leechers":5,"uploader":"sl1pstar","files":212,"time":1468265624,"description":"Star Trek - The Next Generation Complete TV Series\r\n\r\nThis is an older rip of mine but high quality.  Please let me know if you have any issues. \r\n\r\nFormat                                   : AVI\r\nFormat/Info                              : Audio Video Interleave\r\nFile size                                : 465 MiB\r\nDuration                                 : 45mn 11s\r\nOverall bit rate                         : 1 439 Kbps\r\nWriting application                      : Lavf52.17.0\r\nOriginal source form/Name                : TNGS7D1\r\n\r\nVideo\r\nFormat                                   : MPEG-4 Visual\r\nFormat profile                           :   \r\nFormat settings, Matrix                  : (H.263)\r\nCodec ID                                 : DX50\r\nCodec ID/Hint                            : DivX 5\r\nDuration                                 : 45mn 11s\r\nBit rate                                 : 1 234 Kbps\r\nWidth                                    : 640 pixels\r\nHeight                                   : 480 pixels\r\nDisplay aspect ratio                     : 4:3\r\nFrame rate                               : 23.976 (24000/1001) fps\r\nColor space                              : YUV\r\nChroma subsampling                       : 4:2:0\r\nBit depth                                : 8 bits\r\nScan type                                : Progressive\r\nCompression mode                         : Lossy\r\nBits/(Pixel*Frame)                       : 0.168\r\nStream size                              : 399 MiB (86%)\r\nWriting library                          : XviD 1.1.2 (UTC 2006-11-01)\r\n\r\nAudio\r\nID                                       : 1\r\nFormat                                   : MPEG Audio\r\nFormat version                           : Version 1\r\nFormat profile                           : Layer 3\r\nMode                                     : Joint stereo\r\nMode extension                           : MS Stereo\r\nCodec ID                                 : 55\r\nCodec ID/Hint                            : MP3\r\nDuration                                 : 45mn 11s\r\nBit rate mode                            : Constant\r\nBit rate                                 : 192 Kbps\r\nChannel(s)                               : 2 channels\r\nSampling rate                            : 48.0 KHz\r\nCompression mode                         : Lossy\r\nStream size                              : 62.1 MiB (13%)\r\nAlignment                                : Aligned on interleaves\r\nInterleave, duration                     : 24 ms (0.58 video frame)\r\nWriting library                          : LAME3.97","torrent":{"xt":"urn:btih:cbc0215a625552b7334775e462d2ac7bad77e88c","amp;dn":"StarTrek-TNG%28Complete%29AVIXVid-DVDRip","amp;tr":["udp%3A%2F%2Ftracker.leechers-paradise.org%3A6969","udp%3A%2F%2Fzer0day.ch%3A1337","udp%3A%2F%2Fopen.demonii.com%3A1337","udp%3A%2F%2Ftracker.coppersurfer.tk%3A6969","udp%3A%2F%2Fexodus.desync.com%3A6969"],"infoHash":"cbc0215a625552b7334775e462d2ac7bad77e88c","infoHashBuffer":{"type":"Buffer","data":[203,192,33,90,98,85,82,183,51,71,117,228,98,210,172,123,173,119,232,140]},"announce":[],"urlList":[]}}